<svg id="visual" viewBox="0 0 900 600" width="900" height="600" xmlns="http://www.w3.org/2000/svg" xmlns:xlink="http://www.w3.org/1999/xlink" version="1.1"><path d="M0 31L75 31L75 55L150 55L150 7L225 7L225 31L300 31L300 109L375 109L375 79L450 79L450 37L525 37L525 43L600 43L600 91L675 91L675 55L750 55L750 73L825 73L825 79L900 79L900 91L900 0L900 0L825 0L825 0L750 0L750 0L675 0L675 0L600 0L600 0L525 0L525 0L450 0L450 0L375 0L375 0L300 0L300 0L225 0L225 0L150 0L150 0L75 0L75 0L0 0Z" fill="#ffe500"></path><path d="M0 61L75 61L75 139L150 139L150 55L225 55L225 37L300 37L300 115L375 115L375 151L450 151L450 103L525 103L525 133L600 133L600 169L675 169L675 145L750 145L750 121L825 121L825 109L900 109L900 151L900 89L900 77L825 77L825 71L750 71L750 53L675 53L675 89L600 89L600 41L525 41L525 35L450 35L450 77L375 77L375 107L300 107L300 29L225 29L225 5L150 5L150 53L75 53L75 29L0 29Z" fill="#f1d928"></path><path d="M0 247L75 247L75 307L150 307L150 163L225 163L225 151L300 151L300 211L375 211L375 247L450 247L450 133L525 133L525 403L600 403L600 301L675 301L675 205L750 205L750 259L825 259L825 301L900 301L900 187L900 149L900 107L825 107L825 119L750 119L750 143L675 143L675 167L600 167L600 131L525 131L525 101L450 101L450 149L375 149L375 113L300 113L300 35L225 35L225 53L150 53L150 137L75 137L75 59L0 59Z" fill="#e3cc39"></path><path d="M0 343L75 343L75 397L150 397L150 235L225 235L225 175L300 175L300 229L375 229L375 277L450 277L450 235L525 235L525 415L600 415L600 307L675 307L675 325L750 325L750 343L825 343L825 349L900 349L900 229L900 185L900 299L825 299L825 257L750 257L750 203L675 203L675 299L600 299L600 401L525 401L525 131L450 131L450 245L375 245L375 209L300 209L300 149L225 149L225 161L150 161L150 305L75 305L75 245L0 245Z" fill="#d5c046"></path><path d="M0 409L75 409L75 451L150 451L150 301L225 301L225 223L300 223L300 277L375 277L375 331L450 331L450 253L525 253L525 421L600 421L600 331L675 331L675 331L750 331L750 367L825 367L825 379L900 379L900 241L900 227L900 347L825 347L825 341L750 341L750 323L675 323L675 305L600 305L600 413L525 413L525 233L450 233L450 275L375 275L375 227L300 227L300 173L225 173L225 233L150 233L150 395L75 395L75 341L0 341Z" fill="#c7b450"></path><path d="M0 457L75 457L75 505L150 505L150 439L225 439L225 469L300 469L300 421L375 421L375 493L450 493L450 463L525 463L525 517L600 517L600 493L675 493L675 499L750 499L750 433L825 433L825 505L900 505L900 487L900 239L900 377L825 377L825 365L750 365L750 329L675 329L675 329L600 329L600 419L525 419L525 251L450 251L450 329L375 329L375 275L300 275L300 221L225 221L225 299L150 299L150 449L75 449L75 407L0 407Z" fill="#b9a858"></path><path d="M0 523L75 523L75 541L150 541L150 493L225 493L225 475L300 475L300 433L375 433L375 553L450 553L450 475L525 475L525 529L600 529L600 559L675 559L675 517L750 517L750 451L825 451L825 583L900 583L900 535L900 485L900 503L825 503L825 431L750 431L750 497L675 497L675 491L600 491L600 515L525 515L525 461L450 461L450 491L375 491L375 419L300 419L300 467L225 467L225 437L150 437L150 503L75 503L75 455L0 455Z" fill="#aa9d5f"></path><path d="M0 601L75 601L75 601L150 601L150 601L225 601L225 601L300 601L300 601L375 601L375 601L450 601L450 601L525 601L525 601L600 601L600 601L675 601L675 601L750 601L750 601L825 601L825 601L900 601L900 601L900 533L900 581L825 581L825 449L750 449L750 515L675 515L675 557L600 557L600 527L525 527L525 473L450 473L450 551L375 551L375 431L300 431L300 473L225 473L225 491L150 491L150 539L75 539L75 521L0 521Z" fill="#9c9165"></path></svg>