<svg id="visual" viewBox="0 0 900 600" width="900" height="600" xmlns="http://www.w3.org/2000/svg" xmlns:xlink="http://www.w3.org/1999/xlink" version="1.1"><path d="M0 61L43 61L43 37L86 37L86 61L129 61L129 55L171 55L171 55L214 55L214 67L257 67L257 49L300 49L300 43L343 43L343 61L386 61L386 61L429 61L429 55L471 55L471 43L514 43L514 55L557 55L557 61L600 61L600 61L643 61L643 37L686 37L686 49L729 49L729 37L771 37L771 37L814 37L814 61L857 61L857 49L900 49L900 61L900 0L900 0L857 0L857 0L814 0L814 0L771 0L771 0L729 0L729 0L686 0L686 0L643 0L643 0L600 0L600 0L557 0L557 0L514 0L514 0L471 0L471 0L429 0L429 0L386 0L386 0L343 0L343 0L300 0L300 0L257 0L257 0L214 0L214 0L171 0L171 0L129 0L129 0L86 0L86 0L43 0L43 0L0 0Z" fill="#fdf9f0"></path><path d="M0 91L43 91L43 67L86 67L86 85L129 85L129 79L171 79L171 85L214 85L214 91L257 91L257 73L300 73L300 73L343 73L343 97L386 97L386 85L429 85L429 91L471 91L471 73L514 73L514 91L557 91L557 91L600 91L600 85L643 85L643 61L686 61L686 79L729 79L729 67L771 67L771 73L814 73L814 103L857 103L857 91L900 91L900 85L900 59L900 47L857 47L857 59L814 59L814 35L771 35L771 35L729 35L729 47L686 47L686 35L643 35L643 59L600 59L600 59L557 59L557 53L514 53L514 41L471 41L471 53L429 53L429 59L386 59L386 59L343 59L343 41L300 41L300 47L257 47L257 65L214 65L214 53L171 53L171 53L129 53L129 59L86 59L86 35L43 35L43 59L0 59Z" fill="#e1ddd3"></path><path d="M0 247L43 247L43 223L86 223L86 223L129 223L129 175L171 175L171 211L214 211L214 253L257 253L257 205L300 205L300 229L343 229L343 193L386 193L386 181L429 181L429 187L471 187L471 217L514 217L514 241L557 241L557 187L600 187L600 217L643 217L643 217L686 217L686 187L729 187L729 217L771 217L771 181L814 181L814 211L857 211L857 217L900 217L900 223L900 83L900 89L857 89L857 101L814 101L814 71L771 71L771 65L729 65L729 77L686 77L686 59L643 59L643 83L600 83L600 89L557 89L557 89L514 89L514 71L471 71L471 89L429 89L429 83L386 83L386 95L343 95L343 71L300 71L300 71L257 71L257 89L214 89L214 83L171 83L171 77L129 77L129 83L86 83L86 65L43 65L43 89L0 89Z" fill="#c6c2b7"></path><path d="M0 343L43 343L43 337L86 337L86 325L129 325L129 331L171 331L171 319L214 319L214 343L257 343L257 337L300 337L300 337L343 337L343 343L386 343L386 337L429 337L429 313L471 313L471 319L514 319L514 313L557 313L557 331L600 331L600 337L643 337L643 301L686 301L686 307L729 307L729 313L771 313L771 319L814 319L814 325L857 325L857 337L900 337L900 349L900 221L900 215L857 215L857 209L814 209L814 179L771 179L771 215L729 215L729 185L686 185L686 215L643 215L643 215L600 215L600 185L557 185L557 239L514 239L514 215L471 215L471 185L429 185L429 179L386 179L386 191L343 191L343 227L300 227L300 203L257 203L257 251L214 251L214 209L171 209L171 173L129 173L129 221L86 221L86 221L43 221L43 245L0 245Z" fill="#aca79b"></path><path d="M0 373L43 373L43 361L86 361L86 349L129 349L129 361L171 361L171 355L214 355L214 367L257 367L257 373L300 373L300 361L343 361L343 373L386 373L386 367L429 367L429 349L471 349L471 343L514 343L514 349L557 349L557 355L600 355L600 361L643 361L643 337L686 337L686 343L729 343L729 343L771 343L771 343L814 343L814 355L857 355L857 361L900 361L900 379L900 347L900 335L857 335L857 323L814 323L814 317L771 317L771 311L729 311L729 305L686 305L686 299L643 299L643 335L600 335L600 329L557 329L557 311L514 311L514 317L471 317L471 311L429 311L429 335L386 335L386 341L343 341L343 335L300 335L300 335L257 335L257 341L214 341L214 317L171 317L171 329L129 329L129 323L86 323L86 335L43 335L43 341L0 341Z" fill="#928e81"></path><path d="M0 403L43 403L43 397L86 397L86 367L129 367L129 385L171 385L171 373L214 373L214 385L257 385L257 397L300 397L300 385L343 385L343 391L386 391L386 385L429 385L429 373L471 373L471 361L514 361L514 379L557 379L557 373L600 373L600 379L643 379L643 361L686 361L686 367L729 367L729 379L771 379L771 379L814 379L814 379L857 379L857 379L900 379L900 415L900 377L900 359L857 359L857 353L814 353L814 341L771 341L771 341L729 341L729 341L686 341L686 335L643 335L643 359L600 359L600 353L557 353L557 347L514 347L514 341L471 341L471 347L429 347L429 365L386 365L386 371L343 371L343 359L300 359L300 371L257 371L257 365L214 365L214 353L171 353L171 359L129 359L129 347L86 347L86 359L43 359L43 371L0 371Z" fill="#797567"></path><path d="M0 457L43 457L43 445L86 445L86 421L129 421L129 445L171 445L171 433L214 433L214 439L257 439L257 469L300 469L300 445L343 445L343 439L386 439L386 445L429 445L429 421L471 421L471 403L514 403L514 433L557 433L557 433L600 433L600 427L643 427L643 433L686 433L686 409L729 409L729 451L771 451L771 421L814 421L814 433L857 433L857 451L900 451L900 463L900 413L900 377L857 377L857 377L814 377L814 377L771 377L771 377L729 377L729 365L686 365L686 359L643 359L643 377L600 377L600 371L557 371L557 377L514 377L514 359L471 359L471 371L429 371L429 383L386 383L386 389L343 389L343 383L300 383L300 395L257 395L257 383L214 383L214 371L171 371L171 383L129 383L129 365L86 365L86 395L43 395L43 401L0 401Z" fill="#615c4f"></path><path d="M0 487L43 487L43 475L86 475L86 463L129 463L129 487L171 487L171 463L214 463L214 469L257 469L257 511L300 511L300 475L343 475L343 469L386 469L386 475L429 475L429 469L471 469L471 445L514 445L514 475L557 475L557 463L600 463L600 463L643 463L643 469L686 469L686 457L729 457L729 499L771 499L771 451L814 451L814 481L857 481L857 499L900 499L900 487L900 461L900 449L857 449L857 431L814 431L814 419L771 419L771 449L729 449L729 407L686 407L686 431L643 431L643 425L600 425L600 431L557 431L557 431L514 431L514 401L471 401L471 419L429 419L429 443L386 443L386 437L343 437L343 443L300 443L300 467L257 467L257 437L214 437L214 431L171 431L171 443L129 443L129 419L86 419L86 443L43 443L43 455L0 455Z" fill="#494538"></path><path d="M0 535L43 535L43 505L86 505L86 517L129 517L129 541L171 541L171 517L214 517L214 511L257 511L257 541L300 541L300 529L343 529L343 499L386 499L386 529L429 529L429 511L471 511L471 493L514 493L514 511L557 511L557 511L600 511L600 511L643 511L643 523L686 523L686 505L729 505L729 547L771 547L771 505L814 505L814 529L857 529L857 553L900 553L900 535L900 485L900 497L857 497L857 479L814 479L814 449L771 449L771 497L729 497L729 455L686 455L686 467L643 467L643 461L600 461L600 461L557 461L557 473L514 473L514 443L471 443L471 467L429 467L429 473L386 473L386 467L343 467L343 473L300 473L300 509L257 509L257 467L214 467L214 461L171 461L171 485L129 485L129 461L86 461L86 473L43 473L43 485L0 485Z" fill="#332f22"></path><path d="M0 601L43 601L43 601L86 601L86 601L129 601L129 601L171 601L171 601L214 601L214 601L257 601L257 601L300 601L300 601L343 601L343 601L386 601L386 601L429 601L429 601L471 601L471 601L514 601L514 601L557 601L557 601L600 601L600 601L643 601L643 601L686 601L686 601L729 601L729 601L771 601L771 601L814 601L814 601L857 601L857 601L900 601L900 601L900 533L900 551L857 551L857 527L814 527L814 503L771 503L771 545L729 545L729 503L686 503L686 521L643 521L643 509L600 509L600 509L557 509L557 509L514 509L514 491L471 491L471 509L429 509L429 527L386 527L386 497L343 497L343 527L300 527L300 539L257 539L257 509L214 509L214 515L171 515L171 539L129 539L129 515L86 515L86 503L43 503L43 533L0 533Z" fill="#1f1b0c"></path></svg>